<?xml version="1.0" encoding="UTF-8"?>
<svg id="Capa_1" data-name="Capa 1" xmlns="http://www.w3.org/2000/svg" viewBox="0 0 515.16 102.78">
  <defs>
    <style>
      .cls-1 {
        fill: #1f1f1f;
      }

      .cls-2 {
        fill: #3a3a3a;
      }

      .cls-3 {
        fill: #5db130;
      }
    </style>
  </defs>
  <g>
    <path class="cls-2" d="M371.7,65.14v-.82c0-.24,.12-.36,.36-.36h1.15c.24,0,.36,.12,.36,.36v.66c0,1.53,.75,2.29,2.27,2.29h2.24c1.51,0,2.27-.78,2.27-2.34v-.87c0-1.22-1.01-2.02-3.03-2.39-.85-.15-1.7-.33-2.55-.53-.85-.2-1.57-.6-2.16-1.18-.59-.59-.89-1.39-.89-2.41v-1.25c0-1.17,.33-2.09,1.01-2.76s1.59-1.01,2.76-1.01h2.83c1.15,0,2.07,.34,2.75,1.01,.68,.67,1.02,1.59,1.02,2.76v.64c0,.25-.11,.38-.33,.38h-1.17c-.22,0-.33-.13-.33-.38v-.46c0-1.54-.75-2.32-2.27-2.32h-2.16c-1.51,0-2.27,.81-2.27,2.42v1.02c0,.87,.57,1.46,1.71,1.78,.51,.14,1.07,.26,1.68,.37,.61,.11,1.23,.25,1.85,.43,.62,.18,1.18,.4,1.69,.66,.51,.26,.92,.66,1.23,1.2,.31,.54,.47,1.18,.47,1.95v1.15c0,1.17-.34,2.09-1.02,2.76-.68,.67-1.6,1.01-2.75,1.01h-2.93c-1.15,0-2.07-.33-2.75-1.01-.68-.67-1.02-1.59-1.02-2.76Z"/>
    <path class="cls-2" d="M386.26,53.78v-2.39c0-.24,.11-.36,.33-.36h1.17c.24,0,.36,.12,.36,.36v2.39c0,.24-.12,.36-.36,.36h-1.17c-.22,0-.33-.12-.33-.36Zm0,14.77v-12.27c0-.24,.11-.36,.33-.36h1.17c.24,0,.36,.12,.36,.36v12.27c0,.24-.12,.36-.36,.36h-1.15c-.24,0-.36-.12-.36-.36Z"/>
    <path class="cls-2" d="M396.55,68.91h-4.53c-.24,0-.36-.12-.36-.36v-.89c0-.22,.12-.33,.36-.33h4.28c1.32,0,1.99-.49,1.99-1.48v-.48c0-.9-.43-1.52-1.3-1.86l-3-1.27c-.87-.36-1.49-.78-1.86-1.26-.37-.48-.56-1.12-.56-1.92,0-2.09,1.15-3.13,3.44-3.13h4.17c.24,0,.36,.12,.36,.36v.89c0,.22-.12,.33-.36,.33h-3.84c-.61,0-1.07,.13-1.39,.38-.31,.25-.47,.55-.47,.89v.43c0,.71,.48,1.26,1.45,1.63l3,1.35c.88,.34,1.48,.79,1.79,1.35,.31,.56,.47,1.33,.47,2.32,0,2.04-1.21,3.05-3.64,3.05Z"/>
    <path class="cls-2" d="M404.03,57.55h-1.4c-.24,0-.36-.11-.36-.33v-.94c0-.24,.12-.36,.36-.36h1.4c.17,0,.25-.08,.25-.23v-2.19c0-.24,.12-.36,.36-.36h1.15c.22,0,.33,.12,.33,.36v2.19c0,.15,.09,.23,.28,.23h2.7c.25,0,.38,.12,.38,.36v.94c0,.22-.13,.33-.38,.33h-2.7c-.19,0-.28,.08-.28,.23v7.33c0,1.44,.75,2.16,2.24,2.16h.99c.25,0,.38,.12,.38,.36v.94c0,.22-.13,.33-.38,.33h-1.22c-1.17,0-2.1-.33-2.8-.98-.7-.65-1.04-1.57-1.04-2.74v-7.41c0-.15-.08-.23-.25-.23Z"/>
    <path class="cls-2" d="M421.72,68.91h-5.4c-1.17,0-2.09-.33-2.76-.99-.67-.66-1.01-1.59-1.01-2.77v-5.45c0-1.19,.33-2.11,1.01-2.78,.67-.66,1.59-.99,2.76-.99h2.14c1.17,0,2.09,.33,2.75,.99s.99,1.59,.99,2.78v3.23c0,.25-.12,.38-.36,.38h-7.21c-.17,0-.25,.08-.25,.23v1.55c0,1.48,.71,2.21,2.14,2.21h5.19c.24,0,.36,.12,.36,.36v.92c0,.22-.12,.33-.36,.33Zm-7.08-6.95h5.5c.17,0,.25-.08,.25-.25v-1.96c0-1.46-.71-2.19-2.14-2.19h-1.73c-1.43,0-2.14,.73-2.14,2.19v1.96c0,.17,.08,.25,.25,.25Z"/>
    <path class="cls-2" d="M427.22,68.91h-1.15c-.24,0-.36-.12-.36-.36v-12.27c0-.24,.12-.36,.36-.36h1.15c.24,0,.36,.12,.36,.36v.99h.1c.48-.9,1.38-1.35,2.7-1.35h.94c1.49,0,2.53,.58,3.11,1.73,.27-.56,.7-.99,1.29-1.29,.59-.3,1.2-.45,1.85-.45h.89c1.15,0,2.05,.33,2.7,.99,.64,.66,.97,1.59,.97,2.78v8.86c0,.24-.12,.36-.36,.36h-1.15c-.24,0-.36-.12-.36-.36v-8.78c0-1.48-.71-2.21-2.14-2.21h-.84c-.76,0-1.35,.22-1.77,.65-.42,.43-.62,1.02-.62,1.77v8.58c0,.24-.12,.36-.36,.36h-1.15c-.24,0-.36-.12-.36-.36v-8.78c0-1.48-.71-2.21-2.14-2.21h-.94c-.76,0-1.35,.2-1.76,.61-.41,.41-.61,.98-.61,1.73v8.66c0,.24-.12,.36-.36,.36Z"/>
    <path class="cls-2" d="M450.72,68.91h-1.32c-1.17,0-2.09-.33-2.76-.99-.67-.66-1.01-1.59-1.01-2.77v-5.45c0-1.19,.33-2.11,1.01-2.78,.67-.66,1.59-.99,2.76-.99h5.53c.24,0,.36,.12,.36,.36v12.27c0,.24-.12,.36-.36,.36h-1.15c-.24,0-.36-.12-.36-.36v-.99h-.1c-.42,.9-1.29,1.35-2.6,1.35Zm2.7-3.97v-7.15c0-.15-.08-.23-.25-.23h-3.56c-1.41,0-2.11,.74-2.11,2.21v5.29c0,1.48,.7,2.22,2.11,2.22h1.45c.76,0,1.35-.2,1.76-.61s.61-.98,.61-1.73Z"/>
    <path class="cls-2" d="M463.58,68.91h-4.53c-.24,0-.36-.12-.36-.36v-.89c0-.22,.12-.33,.36-.33h4.28c1.32,0,1.99-.49,1.99-1.48v-.48c0-.9-.43-1.52-1.3-1.86l-3-1.27c-.87-.36-1.49-.78-1.86-1.26-.37-.48-.56-1.12-.56-1.92,0-2.09,1.15-3.13,3.44-3.13h4.17c.24,0,.36,.12,.36,.36v.89c0,.22-.12,.33-.36,.33h-3.84c-.61,0-1.07,.13-1.39,.38-.31,.25-.47,.55-.47,.89v.43c0,.71,.48,1.26,1.45,1.63l3,1.35c.88,.34,1.48,.79,1.79,1.35,.31,.56,.47,1.33,.47,2.32,0,2.04-1.21,3.05-3.64,3.05Z"/>
    <path class="cls-2" d="M376.53,88.53h-1.5c-1.15,0-2.05-.33-2.7-.99-.65-.66-.97-1.59-.97-2.77v-5.45c0-1.19,.32-2.11,.97-2.78,.64-.66,1.54-.99,2.7-.99h1.5c1.32,0,2.2,.45,2.62,1.35h.1v-5.91c0-.24,.11-.36,.33-.36h1.17c.22,0,.33,.12,.33,.36v17.18c0,.24-.11,.36-.33,.36h-1.17c-.22,0-.33-.12-.33-.36v-.99h-.1c-.42,.9-1.3,1.35-2.62,1.35Zm2.72-3.97v-5.04c0-.75-.2-1.32-.61-1.73-.41-.41-.99-.61-1.76-.61h-1.55c-1.41,0-2.11,.74-2.11,2.21v5.29c0,1.48,.7,2.22,2.11,2.22h1.55c.76,0,1.35-.2,1.76-.61s.61-.98,.61-1.73Z"/>
    <path class="cls-2" d="M393.9,88.53h-5.4c-1.17,0-2.09-.33-2.76-.99-.67-.66-1.01-1.59-1.01-2.77v-5.45c0-1.19,.33-2.11,1.01-2.78,.67-.66,1.59-.99,2.76-.99h2.14c1.17,0,2.09,.33,2.75,.99s.99,1.59,.99,2.78v3.23c0,.25-.12,.38-.36,.38h-7.21c-.17,0-.25,.08-.25,.23v1.55c0,1.48,.71,2.21,2.14,2.21h5.19c.24,0,.36,.12,.36,.36v.92c0,.22-.12,.33-.36,.33Zm-7.08-6.95h5.5c.17,0,.25-.08,.25-.25v-1.96c0-1.46-.71-2.19-2.14-2.19h-1.73c-1.43,0-2.14,.73-2.14,2.19v1.96c0,.17,.08,.25,.25,.25Z"/>
    <path class="cls-2" d="M406.98,72.51v15.66c0,.24-.12,.36-.36,.36h-1.15c-.24,0-.36-.12-.36-.36v-15.66c0-.24,.12-.36,.36-.36h1.15c.24,0,.36,.12,.36,.36Z"/>
    <path class="cls-2" d="M412.76,88.53h-1.15c-.24,0-.36-.12-.36-.36v-12.27c0-.24,.12-.36,.36-.36h1.15c.24,0,.36,.12,.36,.36v.99h.1c.42-.9,1.29-1.35,2.6-1.35h1.43c1.15,0,2.05,.33,2.7,.99,.64,.66,.97,1.59,.97,2.78v8.86c0,.24-.12,.36-.36,.36h-1.15c-.24,0-.36-.12-.36-.36v-8.78c0-1.48-.71-2.21-2.14-2.21h-1.43c-.76,0-1.35,.2-1.76,.61-.41,.41-.61,.98-.61,1.73v8.66c0,.24-.12,.36-.36,.36Z"/>
    <path class="cls-2" d="M426.18,88.53h-1.15c-.24,0-.36-.12-.36-.36v-12.27c0-.24,.12-.36,.36-.36h1.15c.24,0,.36,.12,.36,.36v.99h.1c.42-.9,1.29-1.35,2.6-1.35h1.43c1.15,0,2.05,.33,2.7,.99,.64,.66,.97,1.59,.97,2.78v8.86c0,.24-.12,.36-.36,.36h-1.15c-.24,0-.36-.12-.36-.36v-8.78c0-1.48-.71-2.21-2.14-2.21h-1.43c-.76,0-1.35,.2-1.76,.61-.41,.41-.61,.98-.61,1.73v8.66c0,.24-.12,.36-.36,.36Z"/>
    <path class="cls-2" d="M443.8,88.53h-2.19c-1.17,0-2.09-.33-2.76-.99-.67-.66-1.01-1.59-1.01-2.77v-5.45c0-1.19,.33-2.11,1.01-2.78,.67-.66,1.59-.99,2.76-.99h2.19c1.17,0,2.09,.33,2.76,.99,.67,.66,1.01,1.59,1.01,2.78v5.45c0,1.19-.34,2.11-1.01,2.77-.67,.66-1.59,.99-2.76,.99Zm-1.99-1.63h1.78c1.43,0,2.14-.73,2.14-2.19v-5.35c0-1.46-.71-2.19-2.14-2.19h-1.78c-1.43,0-2.14,.73-2.14,2.19v5.35c0,1.46,.71,2.19,2.14,2.19Z"/>
    <path class="cls-2" d="M450.21,75.54h1.2c.22,0,.36,.12,.41,.36l3.06,10.77h.13l3.03-10.77c.07-.24,.21-.36,.43-.36h1.2c.24,0,.32,.12,.25,.36l-3.67,12.25c-.05,.25-.2,.38-.46,.38h-1.73c-.24,0-.39-.13-.46-.38l-3.64-12.25c-.07-.24,.02-.36,.25-.36Z"/>
    <path class="cls-2" d="M467.4,88.53h-1.32c-1.17,0-2.09-.33-2.76-.99-.67-.66-1.01-1.59-1.01-2.77v-5.45c0-1.19,.33-2.11,1.01-2.78,.67-.66,1.59-.99,2.76-.99h5.53c.24,0,.36,.12,.36,.36v12.27c0,.24-.12,.36-.36,.36h-1.15c-.24,0-.36-.12-.36-.36v-.99h-.1c-.42,.9-1.29,1.35-2.6,1.35Zm2.7-3.97v-7.15c0-.15-.08-.23-.25-.23h-3.56c-1.41,0-2.11,.74-2.11,2.21v5.29c0,1.48,.7,2.22,2.11,2.22h1.45c.76,0,1.35-.2,1.76-.61s.61-.98,.61-1.73Z"/>
    <path class="cls-2" d="M483.41,87.25v.94c0,.22-.12,.33-.36,.33h-3.69c-1.17,0-2.09-.33-2.76-.99-.67-.66-1.01-1.59-1.01-2.77v-5.45c0-1.19,.33-2.11,1.01-2.78,.67-.66,1.59-.99,2.76-.99h3.69c.24,0,.36,.12,.36,.36v.94c0,.22-.12,.33-.36,.33h-3.49c-1.41,0-2.11,.74-2.11,2.21v5.29c0,1.48,.7,2.22,2.11,2.22h3.49c.24,0,.36,.12,.36,.36Z"/>
    <path class="cls-2" d="M486.51,73.4v-2.39c0-.24,.11-.36,.33-.36h1.17c.24,0,.36,.12,.36,.36v2.39c0,.24-.12,.36-.36,.36h-1.17c-.22,0-.33-.12-.33-.36Zm0,14.77v-12.27c0-.24,.11-.36,.33-.36h1.17c.24,0,.36,.12,.36,.36v12.27c0,.24-.12,.36-.36,.36h-1.15c-.24,0-.36-.12-.36-.36Z"/>
    <path class="cls-2" d="M498.1,88.53h-2.19c-1.17,0-2.09-.33-2.76-.99-.67-.66-1.01-1.59-1.01-2.77v-5.45c0-1.19,.33-2.11,1.01-2.78,.67-.66,1.59-.99,2.76-.99h2.19c1.17,0,2.09,.33,2.76,.99,.67,.66,1.01,1.59,1.01,2.78v5.45c0,1.19-.34,2.11-1.01,2.77-.67,.66-1.59,.99-2.76,.99Zm-1.99-1.63h1.78c1.43,0,2.14-.73,2.14-2.19v-5.35c0-1.46-.71-2.19-2.14-2.19h-1.78c-1.43,0-2.14,.73-2.14,2.19v5.35c0,1.46,.71,2.19,2.14,2.19Zm2.29-16.27h1.55c.1,0,.17,.03,.2,.1,.03,.07,.02,.15-.05,.25l-2.21,2.67c-.17,.17-.34,.25-.51,.25h-.84c-.24,0-.29-.12-.15-.36l1.48-2.6c.12-.22,.3-.33,.53-.33Z"/>
    <path class="cls-2" d="M507.01,88.53h-1.15c-.24,0-.36-.12-.36-.36v-12.27c0-.24,.12-.36,.36-.36h1.15c.24,0,.36,.12,.36,.36v.99h.1c.42-.9,1.29-1.35,2.6-1.35h1.43c1.15,0,2.05,.33,2.7,.99,.64,.66,.97,1.59,.97,2.78v8.86c0,.24-.12,.36-.36,.36h-1.15c-.24,0-.36-.12-.36-.36v-8.78c0-1.48-.71-2.21-2.14-2.21h-1.43c-.76,0-1.35,.2-1.76,.61-.41,.41-.61,.98-.61,1.73v8.66c0,.24-.12,.36-.36,.36Z"/>
  </g>
  <g>
    <path class="cls-1" d="M124.59,84.67V20.28c0-.98,.49-1.47,1.47-1.47h25.76c4.82,0,8.6,1.38,11.36,4.14,2.76,2.76,4.14,6.54,4.14,11.36v36.33c0,4.82-1.38,8.6-4.14,11.36-2.76,2.76-6.54,4.14-11.36,4.14h-25.76c-.98,0-1.47-.49-1.47-1.47Zm8.69-5.23h17.59c5.86,0,8.79-3.04,8.79-9.11V34.63c0-6.07-2.93-9.11-8.79-9.11h-17.59c-.7,0-1.05,.31-1.05,.94v52.04c0,.63,.35,.94,1.05,.94Z"/>
    <path class="cls-1" d="M203.22,86.14h-5.44c-4.82,0-8.6-1.36-11.36-4.08-2.76-2.72-4.13-6.53-4.13-11.41v-22.41c0-4.88,1.38-8.69,4.13-11.41,2.76-2.72,6.54-4.08,11.36-4.08h22.72c.98,0,1.47,.49,1.47,1.47v50.47c0,.98-.49,1.47-1.47,1.47h-4.71c-.98,0-1.47-.49-1.47-1.47v-4.08h-.42c-1.75,3.7-5.31,5.55-10.68,5.55Zm11.1-16.33v-29.42c0-.63-.35-.94-1.05-.94h-14.66c-5.79,0-8.69,3.04-8.69,9.11v21.78c0,6.07,2.9,9.11,8.69,9.11h5.97c3.14,0,5.55-.84,7.22-2.51,1.68-1.68,2.51-4.05,2.51-7.12Z"/>
    <path class="cls-1" d="M244.15,86.14h-4.71c-.98,0-1.47-.49-1.47-1.47V34.21c0-.98,.49-1.47,1.47-1.47h4.71c.98,0,1.47,.49,1.47,1.47v4.19h.42c.7-1.53,2.02-2.86,3.98-3.98,1.95-1.12,4.26-1.67,6.91-1.67h4.08c.91,0,1.36,.49,1.36,1.47v3.87c0,.49-.1,.86-.31,1.1-.21,.25-.56,.33-1.05,.26h-5.65c-3.14,0-5.55,.94-7.22,2.83-1.67,1.88-2.51,4.47-2.51,7.75v34.66c0,.98-.49,1.47-1.47,1.47Z"/>
    <path class="cls-1" d="M291.47,86.14h-18.64c-.98,0-1.47-.49-1.47-1.47v-3.66c0-.91,.49-1.36,1.47-1.36h17.59c5.44,0,8.17-2.02,8.17-6.07v-1.99c0-3.7-1.78-6.25-5.34-7.64l-12.35-5.23c-3.56-1.47-6.11-3.19-7.64-5.18-1.54-1.99-2.3-4.62-2.3-7.9,0-8.59,4.71-12.88,14.13-12.88h17.17c.98,0,1.47,.49,1.47,1.47v3.66c0,.91-.49,1.36-1.47,1.36h-15.81c-2.51,0-4.42,.52-5.71,1.57-1.29,1.05-1.94,2.27-1.94,3.66v1.78c0,2.93,1.99,5.17,5.97,6.7l12.35,5.55c3.63,1.4,6.09,3.25,7.38,5.55,1.29,2.3,1.94,5.48,1.94,9.53,0,8.38-4.99,12.56-14.97,12.56Z"/>
    <path class="cls-1" d="M356.91,86.14h-22.2c-4.82,0-8.6-1.36-11.36-4.08-2.76-2.72-4.13-6.53-4.13-11.41v-22.41c0-4.88,1.38-8.69,4.13-11.41,2.76-2.72,6.54-4.08,11.36-4.08h8.79c4.82,0,8.58,1.36,11.31,4.08,2.72,2.72,4.08,6.53,4.08,11.41v13.3c0,1.05-.49,1.57-1.47,1.57h-29.63c-.7,0-1.05,.31-1.05,.94v6.39c0,6.07,2.93,9.11,8.79,9.11h21.36c.98,0,1.47,.49,1.47,1.47v3.77c0,.91-.49,1.36-1.47,1.36Zm-29.11-28.58h22.62c.7,0,1.05-.35,1.05-1.05v-8.06c0-6-2.93-9-8.79-9h-7.12c-5.86,0-8.79,3-8.79,9v8.06c0,.7,.35,1.05,1.05,1.05Z"/>
  </g>
  <path class="cls-3" d="M100.89,27.54c-1.05-6.4-3.92-11.97-8.27-16.55-.27-.29-.55-.56-.83-.83-4.58-4.35-10.2-6.96-16.55-8.27C67.35,.26,59.38-.07,51.39,.01c-7.99-.08-15.96,.25-23.85,1.88-6.35,1.31-11.97,3.92-16.55,8.27-.28,.27-.56,.54-.83,.83C5.81,15.57,3.2,21.19,1.89,27.54,.26,35.43-.07,43.4,.01,51.39c-.08,7.99,.25,15.96,1.88,23.85,1.31,6.35,3.92,10.97,8.27,15.55,.27,.29,.55,.56,.83,.83,4.58,4.35,10.2,6.96,16.55,8.27,7.89,1.63,15.86,2.96,23.85,2.88,7.99,.08,15.96-.25,23.85-1.88,6.35-1.31,10.97-3.92,15.55-8.27,.28-.27,.56-.54,.83-.83,4.35-4.58,6.96-10.2,8.27-16.55,1.63-7.89,1.96-15.86,1.88-23.85,.08-7.99,.2-17.21-.88-23.85Zm-31.16,53.88h-7.9s-.32-.12-.32-.12l-45.37-15.62-.27-10.45,47.19-18.49,.29,11.25-22.58,8.52c-3.5,1.32-7.13,2.66-10.34,3.77,2.95,.91,6.29,2.01,9.54,3.08l22,7.25,10.88-51.47h10.36l-13.48,62.28Z"/>
</svg>
