<svg xmlns="http://www.w3.org/2000/svg" viewBox="0 0 101.82 102.78"><defs><style>.cls-1{fill:#4dc400;}</style></defs><g id="Layer_2" data-name="Layer 2"><g id="Layer_1-2" data-name="Layer 1"><path class="cls-1" d="M100.89,27.54A31,31,0,0,0,92.62,11c-.27-.29-.55-.56-.83-.83A33.16,33.16,0,0,0,75.24,1.89,111.72,111.72,0,0,0,51.39,0,111.72,111.72,0,0,0,27.54,1.89,33.16,33.16,0,0,0,11,10.16c-.28.27-.56.54-.83.83A33.16,33.16,0,0,0,1.89,27.54,111.72,111.72,0,0,0,0,51.39,111.72,111.72,0,0,0,1.89,75.24a30.07,30.07,0,0,0,8.27,15.55c.27.29.55.56.83.83a33.16,33.16,0,0,0,16.55,8.27c7.89,1.63,15.86,3,23.85,2.88a111.72,111.72,0,0,0,23.85-1.88,30.07,30.07,0,0,0,15.55-8.27c.28-.27.56-.54.83-.83a33.16,33.16,0,0,0,8.27-16.55,111.72,111.72,0,0,0,1.88-23.85C101.85,43.4,102,34.18,100.89,27.54Zm-32,52.88H62l-.16-.06L17.12,65l-.23-9L62.1,38.19l.24,9.11L40.42,55.58c-4.87,1.82-9.56,3.56-13.31,4.76,3.53,1,8.09,2.5,12.55,4l23.06,7.6,11-51.77H82Z"/></g></g></svg>